<?xml version="1.0" encoding="UTF-8"?>
<svg xmlns="http://www.w3.org/2000/svg" version="1.1" viewBox="0 0 47.33 36.43">
  <defs>
    <style>
      .cls-1 {
        fill: #231f20;
      }
    </style>
  </defs>
  <!-- Generator: Adobe Illustrator 28.7.1, SVG Export Plug-In . SVG Version: 1.2.0 Build 142)  -->
  <g>
    <g id="Layer_1">
      <path class="cls-1" d="M11.27,12.23l-.17-2.65.05-2.28-.12-4.97,2.24-1.16,2.21,1.75,1.73,1.27,1.69,1.38,2.33,1.52-9.95,5.14ZM13.21,11.19l.1.07,1.14-.55,1.64-.98,2.9-1.3.06-.37-1.37-.91-1.68-1.38-1.71-1.25-1.21-.96.09,3.74-.05,2.24.11,1.64Z"/>
      <path class="cls-1" d="M29.76,7.92l1.56-1.36,5.68-4.48,2.09,1.17.21,5.12-.12,2.37v2.76s-9.42-5.58-9.42-5.58ZM32.08,9.25l1.8,1.08,3.28,2.12h.02s0-1.77,0-1.77l.12-2.33-.15-3.82-5.41,4.3.34.41Z"/>
      <path class="cls-1" d="M25.86,35.01l-2.07-.15-2.07.05-2.39-.42-1.89-.84-2.21-.87-1.39-1.98-1.07-1.62-1.49-1.11-2.17-.82-1.04-2.36-.66-2.22-.04-2.02.17-2.24.54-2.17.97-1.92,1.47-1.45,1.08-1.54,1.54-1.78,1.73-1.22,1.93-1.04,2-.65,1.94-.42,2.08-.58,1.99-.09,2.33.11,1.93.88,2.15.35,2.04,1,1.52,1.24,1.85,1.17,2.81,2.88,1.56,1.79.42,2.23.73,2.07.11,2.18-.94,1.8-.22,1.98-1.33,2.08-3.59,1.68-1.05,1.37-1.58,1.71-1.91,1.12-1.78.53-1.96.95-2.04.33ZM23.84,32.87l1.93.14,1.66-.27,1.78-.9,1.74-.52,1.43-.87,1.21-1.35,1.29-1.7,3.52-1.66.77-1.2.21-1.89.86-1.65-.08-1.48-.69-1.87-.33-1.77-1.17-1.34-2.68-2.75-1.72-1.07-1.47-1.21-1.58-.75-2.13-.35-1.71-.78-1.85-.09-1.78.09-1.81.52-1.96.42-1.76.58-1.63.89-1.48,1.05-1.22,1.44-1.2,1.68-1.3,1.28-.77,1.52-.41,1.75-.13,1.91.04,1.79.55,1.75.64,1.44,1.76.7,1.89,1.41,2.28,3.35,1.7.67,1.81.81,1.83.3,1.98-.04Z"/>
      <polygon class="cls-1" points="29.57 20.42 29.5 19.68 31.63 19.49 33.79 19.53 35.77 18.76 37.82 18.1 42.16 17.62 44.24 17.16 46.15 16.33 46.45 17.02 44.47 17.87 42.28 18.36 37.97 18.83 36.02 19.46 33.92 20.28 31.65 20.24 29.57 20.42"/>
      <polygon class="cls-1" points="33.82 22.37 31.66 22.26 29.48 22.02 29.57 21.27 31.72 21.51 33.76 21.61 35.78 21.17 37.91 20.65 40.08 20.95 42.2 20.98 44.25 20.56 46.24 20 46.45 20.72 44.43 21.29 42.27 21.72 40.02 21.69 37.95 21.41 35.95 21.9 33.82 22.37"/>
      <polygon class="cls-1" points="42.16 24.68 40.03 24.23 37.93 24.03 35.85 24.23 33.78 24.6 31.62 24.39 29.5 23.98 29.64 23.24 31.73 23.65 33.75 23.84 35.75 23.49 37.93 23.29 40.14 23.49 42.17 23.91 44.18 23.55 46.32 23.27 46.41 24.01 44.29 24.29 42.16 24.68"/>
      <polygon class="cls-1" points="18.41 20.47 16.25 19.91 14.19 19.15 12.09 18.88 9.96 18.75 7.76 18.21 5.73 17.41 3.62 17.49 1.35 17.46 1.37 16.71 3.61 16.74 5.86 16.66 7.99 17.49 10.07 18.01 12.16 18.13 14.38 18.43 16.48 19.2 18.6 19.74 18.41 20.47"/>
      <polygon class="cls-1" points="18.42 22.15 16.35 21.45 14.31 21.08 12.26 21.52 10.01 21.59 7.81 21.17 5.7 20.94 3.66 21.15 1.44 21.18 1.44 20.43 3.62 20.41 5.7 20.2 7.92 20.43 10.07 20.85 12.17 20.78 14.3 20.32 16.54 20.73 18.66 21.44 18.42 22.15"/>
      <polygon class="cls-1" points="1.97 24.67 1.75 23.95 3.8 23.34 6.01 22.84 8.12 23.36 10.21 23.33 12.24 23.04 14.37 22.66 16.5 23.01 18.62 23.27 18.53 24.01 16.4 23.75 14.38 23.42 12.35 23.78 10.27 24.07 8.04 24.11 6 23.61 3.99 24.06 1.97 24.67"/>
      <path class="cls-1" d="M24.71,23.04l-1.16-.09-1.67-1.63-3.18-3.35.65-1.7,4.51.27,1.96-.08,2.46.27.67,1.52-4.24,4.79ZM20.65,17.84l2.3,2.42,1.19,1.16,2.92-3.31-1.29-.14-1.93.07-3.18-.2Z"/>
      <polygon class="cls-1" points="24.65 28.75 24.09 27.31 23.63 28.46 20.6 28.69 17.84 26.79 18.7 25.56 21.02 27.16 22.58 27.04 23.29 25.26 23.28 25.25 23.4 22.45 24.89 22.48 24.92 25.21 24.9 25.26 25.65 27.19 27.01 27.12 29.15 25.58 30.03 26.79 27.53 28.59 24.65 28.75"/>
      <polygon class="cls-1" points="19.72 12 18.68 12.1 17.74 12.64 17.75 13.36 18.44 13.34 18.57 13.27 18.48 13.36 18.95 13.08 18.83 13.12 19.32 13 19.18 12.99 19.72 13 20.21 12.48 19.73 11.96 19.72 12"/>
      <polygon class="cls-1" points="31.38 13.27 30.87 12.73 30.22 12.35 29.48 12.23 29 12.74 29.48 13.25 29.72 13.27 29.59 13.24 30.03 13.33 29.9 13.3 30.29 13.55 30.19 13.47 30.53 13.76 30.42 13.68 30.5 13.79 30.81 14.01 31.19 13.95 31.38 13.28 31.38 13.27"/>
    </g>
  </g>
</svg>