<?xml version="1.0" standalone="no"?>
<!DOCTYPE svg PUBLIC "-//W3C//DTD SVG 20010904//EN"
 "http://www.w3.org/TR/2001/REC-SVG-20010904/DTD/svg10.dtd">
<svg version="1.0" xmlns="http://www.w3.org/2000/svg"
 width="752.000000pt" height="752.000000pt" viewBox="0 0 752.000000 752.000000"
 preserveAspectRatio="xMidYMid meet">
<metadata>
Created by potrace 1.14, written by Peter Selinger 2001-2017
</metadata>
<g transform="translate(0.000000,752.000000) scale(0.100000,-0.100000)"
fill="#000000" stroke="none">
<path d="M1921 6367 l-173 -91 6 -46 c4 -25 9 -304 12 -620 3 -316 9 -635 14
-708 l9 -134 -59 -81 c-32 -45 -111 -134 -175 -197 -116 -114 -117 -116 -194
-270 -55 -109 -85 -182 -101 -247 l-22 -92 -37 14 c-20 8 -87 35 -149 59
l-112 44 -360 -5 -360 -6 0 -53 0 -52 77 -7 c42 -4 198 -4 347 0 l271 7 148
-58 c105 -40 146 -61 143 -71 -3 -7 -11 -84 -17 -170 -6 -87 -15 -161 -18
-165 -3 -4 -64 -1 -136 7 -119 13 -143 13 -314 -5 -103 -11 -255 -20 -338 -20
l-153 0 0 -55 0 -55 173 0 c94 0 249 7 342 16 150 15 185 15 295 3 l125 -14 7
-40 c4 -22 7 -78 7 -125 1 -47 6 -102 12 -123 6 -22 8 -41 6 -43 -3 -3 -58 9
-123 25 l-119 30 -174 -40 c-175 -40 -480 -125 -494 -138 -5 -5 17 -93 27
-108 1 -1 74 19 162 46 87 27 231 65 319 84 l161 36 144 -37 144 -37 22 -70
c25 -81 170 -415 187 -431 7 -6 86 -39 176 -73 154 -57 172 -67 282 -149 113
-85 121 -93 199 -212 45 -68 133 -197 196 -286 l114 -163 178 -70 c97 -38 243
-99 325 -135 141 -63 156 -68 346 -101 185 -33 207 -35 334 -28 79 3 212 1
319 -7 181 -12 186 -12 346 14 159 26 164 28 319 102 100 48 209 91 298 118
121 36 161 54 292 130 152 88 153 89 282 230 71 77 165 188 209 245 l80 104
283 133 284 132 107 166 c97 150 108 171 114 226 4 33 10 60 14 60 4 0 39 -7
77 -16 68 -15 72 -15 264 20 107 19 259 42 338 52 l143 18 -6 55 c-4 30 -8 56
-10 58 -5 6 -311 -37 -482 -68 -162 -29 -175 -30 -240 -17 -69 14 -69 14 -72
49 -2 27 12 63 62 160 l65 124 178 34 c139 26 404 93 500 126 8 3 7 18 -4 57
-9 29 -16 54 -17 55 -1 1 -72 -17 -157 -41 -166 -47 -466 -113 -474 -104 -3 3
-8 63 -11 134 -5 100 -12 143 -30 193 -30 80 -30 81 5 81 15 0 109 18 207 41
143 32 209 54 332 106 89 38 152 71 152 79 0 11 -26 76 -37 93 -1 2 -71 -26
-155 -62 -122 -53 -185 -74 -311 -102 -87 -19 -180 -37 -207 -41 -50 -7 -50
-6 -64 28 -8 19 -29 110 -46 204 -17 93 -35 178 -40 189 -4 11 -72 92 -149
180 l-141 160 0 125 c0 69 5 235 11 370 10 207 9 306 -5 634 -9 214 -19 393
-22 397 -7 12 -309 179 -323 179 -7 0 -226 -169 -487 -375 l-475 -375 -152 25
c-142 24 -162 31 -302 95 l-150 68 -190 9 c-105 6 -260 6 -345 2 -146 -7 -167
-10 -359 -63 -112 -31 -210 -56 -218 -56 -21 0 -207 129 -318 220 -55 46 -170
135 -255 198 -85 64 -237 180 -337 259 -99 79 -185 143 -190 142 -4 -1 -86
-42 -182 -92z m425 -487 c236 -177 434 -337 434 -349 0 -5 -21 -14 -47 -21
-77 -21 -357 -176 -500 -277 -72 -51 -135 -93 -140 -93 -4 0 -9 212 -10 470
l-2 471 23 -18 c13 -10 122 -92 242 -183z m3570 -248 c9 -209 9 -343 2 -492
-6 -113 -12 -207 -15 -210 -2 -2 -21 15 -41 37 -20 23 -107 86 -192 140 -85
54 -208 142 -272 195 -64 53 -123 98 -130 101 -10 3 -9 9 5 23 30 32 622 501
627 497 2 -2 10 -133 16 -291z m-1541 -255 c132 -60 149 -65 308 -91 159 -26
175 -31 294 -87 105 -50 146 -76 243 -157 64 -53 178 -135 253 -181 135 -83
142 -89 356 -310 120 -124 257 -270 304 -324 74 -85 87 -106 96 -150 41 -213
52 -270 49 -273 -2 -1 -64 -10 -138 -18 -151 -17 -299 -60 -592 -172 l-168
-64 -187 0 c-104 0 -258 -7 -343 -15 -85 -8 -157 -15 -159 -15 -5 0 7 -102 13
-108 3 -3 65 0 138 7 73 6 228 11 343 11 l210 0 155 61 c85 33 229 85 320 114
139 45 188 56 309 69 80 9 148 13 151 9 4 -5 17 -37 29 -71 16 -46 24 -97 28
-178 l6 -114 -24 1 c-13 0 -96 10 -184 23 l-160 23 -140 -34 c-77 -19 -225
-53 -330 -77 l-190 -42 -165 9 c-91 4 -239 16 -330 27 -91 10 -166 17 -168 15
-6 -5 -15 -115 -10 -115 3 0 86 -9 184 -19 99 -11 253 -23 344 -27 184 -7 191
-6 633 102 l179 43 146 -20 c81 -12 149 -23 152 -25 2 -3 -13 -39 -34 -81 -23
-48 -40 -98 -43 -131 -3 -30 -12 -56 -19 -59 -7 -2 -56 0 -110 5 -117 12 -385
-11 -615 -52 l-147 -27 -158 16 c-87 8 -232 29 -322 46 -89 17 -166 29 -169
26 -7 -8 -24 -99 -19 -104 13 -13 328 -67 486 -83 l185 -19 160 29 c291 52
591 71 688 44 32 -10 18 -56 -47 -157 l-64 -98 -272 -129 c-150 -71 -279 -135
-286 -141 -8 -6 -55 -66 -106 -133 -51 -66 -137 -172 -192 -234 -91 -103 -112
-121 -216 -183 -93 -56 -140 -76 -248 -109 -91 -27 -180 -63 -275 -111 -136
-69 -147 -73 -279 -95 -131 -21 -143 -21 -310 -8 -101 8 -225 11 -298 7 -106
-5 -148 -2 -280 20 -136 23 -169 33 -270 78 -63 29 -189 82 -279 118 l-164 66
-181 266 -181 265 -155 116 c-144 107 -165 119 -290 167 l-136 52 -53 121
c-57 130 -57 138 4 138 46 0 298 37 485 70 l166 29 141 -23 c215 -37 503 -70
512 -60 5 5 11 30 13 56 l5 47 -36 5 c-20 3 -108 15 -196 26 -88 11 -223 31
-300 44 l-140 24 -155 -28 c-225 -41 -515 -82 -557 -78 -34 3 -36 6 -55 63
-10 33 -22 100 -25 148 l-6 88 29 -8 c16 -4 119 -7 229 -5 186 2 212 5 366 38
l165 35 165 -30 c136 -25 359 -90 469 -135 12 -5 20 6 33 46 9 29 13 55 9 59
-4 3 -76 29 -161 58 -104 36 -213 64 -336 87 l-183 34 -158 -37 c-157 -36
-162 -36 -381 -37 -152 -1 -226 3 -233 10 -9 9 -9 51 0 165 6 84 13 156 16
160 2 4 19 4 37 -1 17 -5 109 -13 202 -19 94 -7 244 -21 335 -32 151 -19 179
-26 325 -80 139 -52 502 -156 509 -147 10 12 26 102 19 108 -4 4 -82 26 -172
49 -89 23 -236 69 -325 102 -149 54 -178 61 -347 83 -101 14 -245 28 -319 31
-175 8 -243 21 -236 43 3 9 12 45 20 78 7 35 43 116 79 185 60 112 74 132 155
206 62 57 119 124 187 220 54 76 145 193 202 260 87 102 123 136 221 206 258
182 482 279 820 352 90 19 218 51 285 71 154 46 230 53 502 49 l220 -4 140
-64z"/>
<path d="M3020 4731 c-39 -5 -76 -19 -127 -49 l-73 -43 0 -54 0 -55 54 0 c36
0 71 8 108 25 30 14 77 28 104 31 37 5 58 15 86 42 l37 35 -32 38 c-35 42 -41
43 -157 30z"/>
<path d="M4648 4663 l-38 -39 43 -42 c27 -26 52 -42 67 -42 31 0 85 -32 129
-77 27 -28 39 -34 69 -31 35 3 38 5 51 56 l14 53 -44 45 c-60 62 -134 102
-200 110 -53 6 -55 5 -91 -33z"/>
<path d="M3027 3938 c-25 -68 -47 -128 -49 -134 -4 -14 234 -268 527 -564
l213 -215 -10 -200 -10 -200 -55 -137 -54 -136 -87 -7 c-48 -3 -103 -8 -122
-11 -32 -5 -52 6 -217 121 -100 69 -186 125 -190 125 -7 0 -122 -159 -131
-181 -3 -6 80 -66 363 -261 l70 -48 238 19 c131 11 240 21 241 23 2 1 18 40
36 86 18 46 36 80 41 75 4 -4 24 -51 44 -103 20 -52 40 -98 43 -102 9 -9 445
16 463 27 8 5 98 69 202 143 l187 134 -37 52 c-20 28 -50 69 -67 91 -16 22
-31 42 -32 43 -1 2 -79 -51 -172 -117 l-170 -121 -109 -7 -109 -6 -56 149 -57
149 -4 198 -4 198 323 364 323 365 -50 112 c-28 62 -54 117 -58 121 -5 4 -89
17 -187 28 -143 16 -214 19 -354 15 -123 -4 -269 0 -490 14 -173 11 -331 20
-351 20 l-36 0 -46 -122z m940 -150 c214 -2 305 -6 314 -15 9 -9 -41 -71 -212
-266 -123 -141 -229 -256 -236 -256 -14 -1 -543 545 -543 560 0 3 84 -1 188
-8 103 -7 323 -14 489 -15z"/>
</g>
</svg>
